<svg version="1.1" id="Layer_1" xmlns="http://www.w3.org/2000/svg" xmlns:xlink="http://www.w3.org/1999/xlink" x="0px" y="0px"
	 width="100%" viewBox="0 0 225 225" enable-background="new 0 0 225 225" xml:space="preserve">
<path fill="#FFFFFE" opacity="1.000000" stroke="none" 
	d="
M1.000000,225.000000 
	C1.000000,150.979111 1.000000,76.958206 1.223550,2.366355 
	C1.722806,1.593810 1.907105,1.328678 2.000000,1.000000 
	C76.020897,1.000000 150.041794,1.000000 224.635315,1.222764 
	C225.404099,1.727300 225.668106,1.912125 226.000000,2.000000 
	C226.000000,76.020897 226.000000,150.041794 225.776459,224.633636 
	C225.277222,225.406204 225.092911,225.671341 225.000000,226.000000 
	C150.979111,226.000000 76.958206,226.000000 2.364669,225.777252 
	C1.595893,225.272720 1.331886,225.087891 1.000000,225.000000 
M43.620148,32.049618 
	C41.530354,32.049618 39.440559,32.049618 37.322189,32.049618 
	C37.322189,35.420506 37.322189,38.053204 37.322189,40.718643 
	C41.829029,41.794327 46.226524,42.659649 50.513149,43.906219 
	C58.877003,46.338478 60.982220,49.224361 60.990009,57.862900 
	C61.011036,81.186928 60.997505,104.510986 60.997681,127.835037 
	C60.997692,129.402298 60.997681,130.969574 60.997681,132.536835 
	C73.748810,107.252533 91.771332,87.809982 118.069977,76.565979 
	C116.803337,76.058273 115.815491,75.776566 114.892708,75.918350 
	C113.435371,76.142288 111.988571,76.557236 110.594742,77.052864 
	C98.915611,81.205887 88.462700,87.440346 79.006989,95.772255 
	C79.929710,91.604568 81.058548,87.647789 82.696564,83.914406 
	C94.275475,57.523678 108.750534,53.913219 128.207947,56.080238 
	C138.893799,57.270351 149.153076,60.156429 159.111801,64.698006 
	C153.465866,75.627434 146.845428,85.131500 138.392944,93.318596 
	C127.261765,104.100281 114.416214,109.894432 98.582741,107.152412 
	C95.638603,106.642548 92.678207,106.035492 89.709900,105.936722 
	C88.224915,105.887306 86.029640,106.417305 85.301216,107.474541 
	C71.733757,127.166359 61.207531,148.058853 61.024521,172.723663 
	C60.984657,178.096573 58.660980,181.880508 53.683750,183.351608 
	C48.306007,184.941101 42.697353,185.749359 37.527054,186.827942 
	C37.527054,189.592087 37.527054,192.168182 37.527054,194.591385 
	C66.964249,194.591385 96.017998,194.591385 125.058121,194.591385 
	C125.058121,191.934647 125.058121,189.638428 125.058121,187.330872 
	C122.769890,186.495193 120.701752,185.615524 118.559113,184.991714 
	C116.332191,184.343353 113.998901,184.060242 111.772141,183.411423 
	C104.538956,181.303864 101.948593,177.966293 101.892586,170.445053 
	C101.811951,159.616623 101.870682,148.787170 101.870094,137.958145 
	C101.869865,133.691040 101.870056,129.423920 101.870056,124.869972 
	C106.802017,124.869972 111.130806,125.154427 115.409523,124.812454 
	C125.178925,124.031647 135.098755,123.785370 144.641174,121.800957 
	C162.863022,118.011604 179.083328,110.270607 186.283737,91.497498 
	C194.077057,71.178505 191.386261,44.997181 161.976242,36.914539 
	C150.895782,33.869347 139.080215,32.532059 127.556274,32.260323 
	C99.915977,31.608557 72.249924,32.049603 43.620148,32.049618 
z"/>
<path fill="#F5F5F5" opacity="1.000000" stroke="none" 
	d="
M1.500000,1.000000 
	C1.907105,1.328678 1.722806,1.593810 1.223550,1.897698 
	C1.000000,1.666667 1.000000,1.333333 1.500000,1.000000 
z"/>
<path fill="#F5F5F5" opacity="1.000000" stroke="none" 
	d="
M226.000000,1.500000 
	C225.668106,1.912125 225.404099,1.727300 225.103973,1.222764 
	C225.333328,1.000000 225.666672,1.000000 226.000000,1.500000 
z"/>
<path fill="#F5F5F5" opacity="1.000000" stroke="none" 
	d="
M1.000000,225.500000 
	C1.331886,225.087891 1.595893,225.272720 1.896011,225.777252 
	C1.666667,226.000000 1.333333,226.000000 1.000000,225.500000 
z"/>
<path fill="#F5F5F5" opacity="1.000000" stroke="none" 
	d="
M225.500000,226.000000 
	C225.092911,225.671341 225.277222,225.406204 225.776459,225.102295 
	C226.000000,225.333328 226.000000,225.666672 225.500000,226.000000 
z"/>
<path fill="#496B22" opacity="1.000000" stroke="none" 
	d="
M44.107204,32.049622 
	C72.249924,32.049603 99.915977,31.608557 127.556274,32.260323 
	C139.080215,32.532059 150.895782,33.869347 161.976242,36.914539 
	C191.386261,44.997181 194.077057,71.178505 186.283737,91.497498 
	C179.083328,110.270607 162.863022,118.011604 144.641174,121.800957 
	C135.098755,123.785370 125.178925,124.031647 115.409523,124.812454 
	C111.130806,125.154427 106.802017,124.869972 101.870056,124.869972 
	C101.870056,129.423920 101.869865,133.691040 101.870094,137.958145 
	C101.870682,148.787170 101.811951,159.616623 101.892586,170.445053 
	C101.948593,177.966293 104.538956,181.303864 111.772141,183.411423 
	C113.998901,184.060242 116.332191,184.343353 118.559113,184.991714 
	C120.701752,185.615524 122.769890,186.495193 125.058121,187.330872 
	C125.058121,189.638428 125.058121,191.934647 125.058121,194.591385 
	C96.017998,194.591385 66.964249,194.591385 37.527054,194.591385 
	C37.527054,192.168182 37.527054,189.592087 37.527054,186.827942 
	C42.697353,185.749359 48.306007,184.941101 53.683750,183.351608 
	C58.660980,181.880508 60.984657,178.096573 61.024521,172.723663 
	C61.207531,148.058853 71.733757,127.166359 85.301216,107.474541 
	C86.029640,106.417305 88.224915,105.887306 89.709900,105.936722 
	C92.678207,106.035492 95.638603,106.642548 98.582741,107.152412 
	C114.416214,109.894432 127.261765,104.100281 138.392944,93.318596 
	C146.845428,85.131500 153.465866,75.627434 159.111801,64.698006 
	C149.153076,60.156429 138.893799,57.270351 128.207947,56.080238 
	C108.750534,53.913219 94.275475,57.523678 82.696564,83.914406 
	C81.058548,87.647789 79.929710,91.604568 79.006989,95.772255 
	C88.462700,87.440346 98.915611,81.205887 110.594742,77.052864 
	C111.988571,76.557236 113.435371,76.142288 114.892708,75.918350 
	C115.815491,75.776566 116.803337,76.058273 118.069977,76.565979 
	C91.771332,87.809982 73.748810,107.252533 60.997681,132.536835 
	C60.997681,130.969574 60.997692,129.402298 60.997681,127.835037 
	C60.997505,104.510986 61.011036,81.186928 60.990009,57.862900 
	C60.982220,49.224361 58.877003,46.338478 50.513149,43.906219 
	C46.226524,42.659649 41.829029,41.794327 37.322189,40.718643 
	C37.322189,38.053204 37.322189,35.420506 37.322189,32.049618 
	C39.440559,32.049618 41.530354,32.049618 44.107204,32.049622 
z"/>
</svg>